<?xml version="1.0" encoding="UTF-8" standalone="no"?>
<!-- Created with Inkscape (http://www.inkscape.org/) -->

<svg
   sodipodi:docname="Bunting2.svg"
   inkscape:version="1.2.1 (9c6d41e410, 2022-07-14)"
   id="svg5971"
   version="1.1"
   viewBox="0 0 671.48529 243.0488"
   height="243.0488"
   width="671.48529"
   inkscape:export-filename="Bunting.png"
   inkscape:export-xdpi="96"
   inkscape:export-ydpi="96"
   xmlns:inkscape="http://www.inkscape.org/namespaces/inkscape"
   xmlns:sodipodi="http://sodipodi.sourceforge.net/DTD/sodipodi-0.dtd"
   xmlns="http://www.w3.org/2000/svg"
   xmlns:svg="http://www.w3.org/2000/svg">
  <sodipodi:namedview
     id="namedview5973"
     pagecolor="#ffffff"
     bordercolor="#000000"
     borderopacity="0.25"
     inkscape:showpageshadow="2"
     inkscape:pageopacity="0.0"
     inkscape:pagecheckerboard="0"
     inkscape:deskcolor="#d1d1d1"
     inkscape:document-units="px"
     showgrid="false"
     inkscape:zoom="1.4770342"
     inkscape:cx="283.33806"
     inkscape:cy="-2.7081296"
     inkscape:window-width="1920"
     inkscape:window-height="1009"
     inkscape:window-x="-8"
     inkscape:window-y="-8"
     inkscape:window-maximized="1"
     inkscape:current-layer="layer1"
     showguides="true"
     inkscape:lockguides="true">
    <sodipodi:guide
       position="724.08613,145.43003"
       orientation="1,0"
       id="guide6150"
       inkscape:locked="true" />
    <inkscape:grid
       type="xygrid"
       id="grid6152" />
    <sodipodi:guide
       position="350.70277,118.85651"
       orientation="1,0"
       id="guide6154"
       inkscape:locked="true" />
    <sodipodi:guide
       position="1085.9599,79.588633"
       orientation="1,0"
       id="guide6156"
       inkscape:locked="true" />
    <sodipodi:guide
       position="951.23049,79.088633"
       orientation="0,-1"
       id="guide7828"
       inkscape:locked="true" />
  </sodipodi:namedview>
  <defs
     id="defs5968" />
  <g
     inkscape:label="Layer 1"
     inkscape:groupmode="layer"
     id="layer1"
     transform="translate(-13.923223,70.057708)">
    <g
       id="g492"
       transform="rotate(-17.005056,364.25757,66.327369)">
      <path
         d="m 19.1002,4.115167 c 0,0 82.42228,63.094963 317.01672,65.875345 248.90979,2.950045 369.21645,-41.557614 369.21645,-41.557614"
         style="display:inline;fill:none;stroke:#736339;stroke-linejoin:round;stroke-dashoffset:1.35;stroke-opacity:0.333333;stop-color:#000000"
         id="path7826"
         sodipodi:nodetypes="csc" />
      <g
         id="g1136">
        <path
           style="display:inline;fill:#ffffff;fill-opacity:1;stroke:#736339;stroke-linejoin:round;stroke-dashoffset:1.35;stroke-opacity:0.331445;stop-color:#000000"
           d="m 689.97355,92.532607 c 10.30973,-17.874421 9.82678,-39.049538 6.83145,-60.99301 l -33.299,8.26557 c 19.79108,20.028856 22.36895,36.208097 26.46755,52.72744 z"
           id="path12487"
           sodipodi:nodetypes="cccc" />
        <path
           style="display:inline;fill:#ffffff;fill-opacity:1;stroke:#736339;stroke-linejoin:round;stroke-dashoffset:1.35;stroke-opacity:0.331445;stop-color:#000000"
           d="m 539.14169,123.30853 c 6.94402,-18.94233 22.10028,-40.329029 16.28561,-63.173311 l -35.152,3.9782 c 16.41986,22.705654 15.29226,43.383431 18.86639,59.195111 z"
           id="path12483"
           sodipodi:nodetypes="cccc" />
        <path
           style="display:inline;fill:#ffffff;fill-opacity:1;stroke:#736339;stroke-linejoin:round;stroke-dashoffset:1.35;stroke-opacity:0.331445;stop-color:#000000"
           d="M 382.70811,128.05251 C 397.75423,110.98638 402.40133,90.739933 405.522,70.026667 l -35.322,0.6698 c 9.54291,20.762057 13.32105,39.761093 12.50811,57.356043 z"
           id="path12479"
           sodipodi:nodetypes="cccc" />
        <path
           style="display:inline;fill:#ffffff;fill-opacity:1;stroke:#736339;stroke-linejoin:round;stroke-dashoffset:1.35;stroke-opacity:0.331445;stop-color:#000000"
           d="M 235.64901,120.05794 C 248.13791,94.361905 254.27281,84.555451 258.2,66.574267 l -34.744,-3.761 c 10.60147,22.024775 5.66371,36.465282 12.19301,57.244673 z"
           id="path12475"
           sodipodi:nodetypes="cccc" />
        <path
           style="display:inline;fill:#ffffff;fill-opacity:1;stroke:#736339;stroke-linejoin:round;stroke-dashoffset:1.35;stroke-opacity:0.331445;stop-color:#000000"
           d="M 81.616673,90.905801 C 88.832871,72.768734 101.10853,57.594961 115.205,41.562067 l -32.9419,-10.0862 c -2.131303,19.696057 -1.948087,38.683984 -0.646427,59.429934 z"
           id="path12471"
           sodipodi:nodetypes="cccc" />
      </g>
      <g
         id="g1129">
        <path
           style="display:inline;fill:#c53c2d;fill-opacity:1;stroke:#9c9c8e;stroke-linejoin:round;stroke-dashoffset:1.35;stroke-opacity:0.0705882;stop-color:#000000"
           d="M 610.7579,108.51906 C 621.78861,90.091586 625.49025,69.422682 625.563,47.643967 l -34.456,5.8739 c 14.82237,19.985823 17.07662,37.461551 19.6509,55.001193 z"
           id="path12485"
           sodipodi:nodetypes="cccc" />
        <path
           style="display:inline;fill:#c53c2d;fill-opacity:1;stroke:#9c9c8e;stroke-linejoin:round;stroke-dashoffset:1.35;stroke-opacity:0.0705882;stop-color:#000000"
           d="M 458.97668,124.07868 C 472.15832,106.7403 478.31736,87.254226 479.421,66.222067 l -35.281,2.2351 c 11.07926,20.416357 14.03308,38.347733 14.83668,55.621513 z"
           id="path12481"
           sodipodi:nodetypes="cccc" />
        <path
           style="display:inline;fill:#c53c2d;fill-opacity:1;stroke:#9c9c8e;stroke-linejoin:round;stroke-dashoffset:1.35;stroke-opacity:0.0705882;stop-color:#000000"
           d="m 300.9145,130.34239 c 11.23676,-18.57092 30.53206,-39.779863 30.9235,-59.786823 l -35.473,-1.2861 c 6.10181,18.034986 6.26186,41.704693 4.5495,61.072923 z"
           id="path12477"
           sodipodi:nodetypes="cccc" />
        <path
           style="display:inline;fill:#c53c2d;fill-opacity:1;stroke:#9c9c8e;stroke-linejoin:round;stroke-dashoffset:1.35;stroke-opacity:0.0705882;stop-color:#000000"
           d="M 155.38385,106.8661 186.153,57.266867 151.848,50.574967 Z"
           id="path12473"
           sodipodi:nodetypes="cccc" />
        <path
           style="display:inline;fill:#c53c2d;fill-opacity:1;stroke:#9c9c8e;stroke-linejoin:round;stroke-dashoffset:1.35;stroke-opacity:0.0705882;stop-color:#000000"
           d="M 11.655083,64.927783 C 20.897156,48.543487 33.47703,33.179982 47.8883,18.376567 L 19.1002,4.115167 C 8.175696,21.804002 11.044713,43.71127 11.655083,64.927783 Z"
           id="path3666"
           sodipodi:nodetypes="cccc" />
      </g>
    </g>
  </g>
</svg>
