<?xml version="1.0" encoding="UTF-8" standalone="no"?>
<!-- Created with Inkscape (http://www.inkscape.org/) -->

<svg
   width="1652.522"
   height="234.47935"
   viewBox="0 0 1652.522 234.47935"
   version="1.1"
   id="svg5971"
   xmlns="http://www.w3.org/2000/svg"
   xmlns:svg="http://www.w3.org/2000/svg">
  <defs
     id="defs5968" />
  <g
     id="layer1"
     transform="translate(-13.605812,70.740422)">
    <path
       d="m 20.8063,134.875 -6.7005,-40.439 32.2685,8.268 z m 67.7512,15.513 -9.0619,-40.098 32.6554,6.477 z m 70.0175,10.535 -12.855,-39.052 33.13,2.936 z m 74.555,0.386 -20.36,-36.198 33.046,-3.234 z m 74.067,-17.689 -28.495,-29.847 31.319,-11.214 z M 372.666,116.009 341.328,89.4244 371.219,74.7803 Z M 434.219,82.8853 401.092,58.603 430.014,42.0907 Z M 492.835,48.3458 459.281,24.801 487.855,7.65889 Z m 57.85,-35.067 -33.763,-23.24445 28.42,-17.39655 z m 57.419,-35.1471 -33.763,-23.2444 28.42,-17.3966 z m 20.392,1.1135 4.255,-40.7693 28.881,16.6104 z m 59.105,33.575 3.591,-40.9348 29.103,16.2098 z m 59.97,32.592 2.552,-41.02118 29.499,15.45268 z m 61.948,30.5572 0.581,-41.0848 30.251,13.9003 z m 64.173,26.9086 -2.025,-40.9398 31.192,11.666 z m 67.197,21.97 -5.745,-40.7065 32.029,9.0644 z m 67.931,16.72 -8.66,-40.258 32.57,6.931 z m 68.33,12.482 -10.99,-39.698 32.91,5.017 z m 69.8,7.799 -14.13,-38.67 33.22,2.202 z m 70.37,1.39 -17.33,-37.227 33.29,-0.719 z m 69.2,-3.514 -19.31,-36.183 33.2,-2.602 z m 69.03,-7.011 -21.32,-35.104 32.97,-4.508 z m 73.78,-16.73 -28.98,-29.96 31.18,-11.3623 z"
       style="display:none;fill:none;stroke:#736339;stroke-linejoin:round;stroke-dashoffset:1.35;stroke-opacity:0.333333;stop-color:#000000"
       id="path4803" />
    <path
       d="m 13.9232,95.1382 c 15.3473,4.06251 30.6933,8.12471 53.7127,13.3153 23.0194,5.19061 53.7109,11.5094 84.1776,14.8945 30.4667,3.38505 60.7069,3.8364 86.2084,0.45106 25.5015,-3.38535 46.2634,-10.6069 69.2828,-19.4084 23.0193,-8.80153 48.2947,-19.1825 100.201,-48.521 51.9065,-29.3385 130.44,-77.6324 208.976,-125.927 55.5167,32.0462 111.034,64.0931 161.812,90.0461 50.7779,25.953 96.8152,45.8122 144.659,61.1583 47.8441,15.346 97.4922,26.1784 141.274,33.6257 43.7818,7.44732 81.6949,11.5094 124.123,11.9607 42.4277,0.45123 89.3677,-2.7082 126.379,-6.31911 37.0113,-3.61092 64.092,-7.67302 85.3057,-13.5407 21.2136,-5.86774 36.2255,-14.510026 53.5806,-23.367704 25.1153,-12.818301 49.5949,-27.043614 72.876,-42.951997 20.9421,-14.310121 40.4874,-30.6097945 59.8177,-47.0321117 12.4244,-10.5552873 24.5288,-21.5177103 36.0453,-33.0567173 9.7347,-9.753694 27.8827,-30.522828 27.8827,-30.522828"
       style="fill:none;stroke:#736339;stroke-linejoin:round;stroke-dashoffset:1.35;stroke-opacity:0.333333;stop-color:#000000"
       id="path418" />
    <g
       id="g1820">
      <path
         style="fill:#fffdfd;fill-opacity:1;stroke:#736339;stroke-linejoin:round;stroke-dashoffset:1.35;stroke-opacity:0.333333;stop-color:#000000"
         d="m 1355.55,152.714 -21.32,-35.104 32.97,-4.508 z"
         id="path1791" />
      <path
         style="fill:#fffdfd;fill-opacity:1;stroke:#736339;stroke-linejoin:round;stroke-dashoffset:1.35;stroke-opacity:0.333333;stop-color:#000000"
         d="m 1217.32,163.239 -17.33,-37.227 33.29,-0.719 z"
         id="path1787" />
      <path
         style="fill:#fffdfd;fill-opacity:1;stroke:#736339;stroke-linejoin:round;stroke-dashoffset:1.35;stroke-opacity:0.333333;stop-color:#000000"
         d="m 1077.15,154.05 -10.99,-39.698 32.91,5.017 z"
         id="path1783" />
      <path
         style="fill:#fffdfd;fill-opacity:1;stroke:#736339;stroke-linejoin:round;stroke-dashoffset:1.35;stroke-opacity:0.333333;stop-color:#000000"
         d="m 940.889,124.848 -5.745,-40.7065 32.029,9.0644 z"
         id="path1779" />
      <path
         style="fill:#fffdfd;fill-opacity:1;stroke:#736339;stroke-linejoin:round;stroke-dashoffset:1.35;stroke-opacity:0.333333;stop-color:#000000"
         d="M 809.519,75.9694 810.1,34.8846 840.351,48.7849 Z"
         id="path1775" />
      <path
         style="fill:#fffdfd;fill-opacity:1;stroke:#736339;stroke-linejoin:round;stroke-dashoffset:1.35;stroke-opacity:0.333333;stop-color:#000000"
         d="m 687.601,12.8202 3.591,-40.9348 29.103,16.2098 z"
         id="path1771" />
      <path
         style="fill:#fffdfd;fill-opacity:1;stroke:#736339;stroke-linejoin:round;stroke-dashoffset:1.35;stroke-opacity:0.333333;stop-color:#000000"
         d="m 608.104,-21.8683 -33.763,-23.2444 28.42,-17.3966 z"
         id="path1767" />
      <path
         style="fill:#fffdfd;fill-opacity:1;stroke:#736339;stroke-linejoin:round;stroke-dashoffset:1.35;stroke-opacity:0.333333;stop-color:#000000"
         d="M 492.835,48.3458 459.281,24.801 487.855,7.65889 Z"
         id="path1763" />
      <path
         style="fill:#fffdfd;fill-opacity:1;stroke:#736339;stroke-linejoin:round;stroke-dashoffset:1.35;stroke-opacity:0.333333;stop-color:#000000"
         d="M 372.666,116.009 341.328,89.4244 371.219,74.7803 Z"
         id="path1759" />
      <path
         style="fill:#fffdfd;fill-opacity:1;stroke:#736339;stroke-linejoin:round;stroke-dashoffset:1.35;stroke-opacity:0.333333;stop-color:#000000"
         d="m 233.13,161.309 -20.36,-36.198 33.046,-3.234 z"
         id="path1755" />
      <path
         style="fill:#fffdfd;fill-opacity:1;stroke:#736339;stroke-linejoin:round;stroke-dashoffset:1.35;stroke-opacity:0.333333;stop-color:#000000"
         d="m 88.5575,150.388 -9.0619,-40.098 32.6554,6.477 z"
         id="path1751" />
    </g>
    <g
       id="g1807"
       style="display:inline">
      <path
         style="fill:#c53c2d;fill-opacity:1;stroke:#736339;stroke-linejoin:round;stroke-dashoffset:1.35;stroke-opacity:0.333333;stop-color:#000000"
         d="m 1429.33,135.984 -28.98,-29.96 31.18,-11.3623 z"
         id="path1793" />
      <path
         style="fill:#c53c2d;fill-opacity:1;stroke:#736339;stroke-linejoin:round;stroke-dashoffset:1.35;stroke-opacity:0.333333;stop-color:#000000"
         d="m 1286.52,159.725 -19.31,-36.183 33.2,-2.602 z"
         id="path1789" />
      <path
         style="fill:#c53c2d;fill-opacity:1;stroke:#736339;stroke-linejoin:round;stroke-dashoffset:1.35;stroke-opacity:0.333333;stop-color:#000000"
         d="m 1146.95,161.849 -14.13,-38.67 33.22,2.202 z"
         id="path1785" />
      <path
         style="fill:#c53c2d;fill-opacity:1;stroke:#736339;stroke-linejoin:round;stroke-dashoffset:1.35;stroke-opacity:0.333333;stop-color:#000000"
         d="m 1008.82,141.568 -8.66,-40.258 32.57,6.931 z"
         id="path1781" />
      <path
         style="fill:#c53c2d;fill-opacity:1;stroke:#736339;stroke-linejoin:round;stroke-dashoffset:1.35;stroke-opacity:0.333333;stop-color:#000000"
         d="m 873.692,102.878 -2.025,-40.9398 31.192,11.666 z"
         id="path1777" />
      <path
         style="fill:#c53c2d;fill-opacity:1;stroke:#736339;stroke-linejoin:round;stroke-dashoffset:1.35;stroke-opacity:0.333333;stop-color:#000000"
         d="M 747.571,45.4122 750.123,4.39102 779.622,19.8437 Z"
         id="path1773" />
      <path
         style="fill:#c53c2d;fill-opacity:1;stroke:#736339;stroke-linejoin:round;stroke-dashoffset:1.35;stroke-opacity:0.333333;stop-color:#000000"
         d="m 628.496,-20.7548 4.255,-40.7693 28.881,16.6104 z"
         id="path1769" />
      <path
         style="fill:#c53c2d;fill-opacity:1;stroke:#736339;stroke-linejoin:round;stroke-dashoffset:1.35;stroke-opacity:0.333333;stop-color:#000000"
         d="M 550.685,13.2788 516.922,-9.96565 545.342,-27.3622 Z"
         id="path1765" />
      <path
         style="fill:#c53c2d;fill-opacity:1;stroke:#736339;stroke-linejoin:round;stroke-dashoffset:1.35;stroke-opacity:0.333333;stop-color:#000000"
         d="M 434.219,82.8853 401.092,58.603 430.014,42.0907 Z"
         id="path1761" />
      <path
         style="fill:#c53c2d;fill-opacity:1;stroke:#736339;stroke-linejoin:round;stroke-dashoffset:1.35;stroke-opacity:0.333333;stop-color:#000000"
         d="m 307.197,143.62 -28.495,-29.847 31.319,-11.214 z"
         id="path1757" />
      <path
         style="fill:#c53c2d;fill-opacity:1;stroke:#736339;stroke-linejoin:round;stroke-dashoffset:1.35;stroke-opacity:0.333333;stop-color:#000000"
         d="m 158.575,160.923 -12.855,-39.052 33.13,2.936 z"
         id="path1753" />
      <path
         style="fill:#c53c2d;fill-opacity:1;stroke:#736339;stroke-linejoin:round;stroke-dashoffset:1.35;stroke-opacity:0.333333;stop-color:#000000"
         d="m 20.8063,134.875 -6.7005,-40.439 32.2685,8.268 z"
         id="path9577" />
    </g>
    <path
       style="display:inline;fill:#c53c2d;fill-opacity:1;stroke:#736339;stroke-linejoin:round;stroke-dashoffset:1.35;stroke-opacity:0.333333;stop-color:#000000"
       d="m 1542.1388,74.66989 -35.2813,-22.196155 27.5769,-18.46111 z"
       id="path2933" />
    <path
       style="fill:#fffdfd;fill-opacity:1;stroke:#736339;stroke-linejoin:round;stroke-dashoffset:1.35;stroke-opacity:0.333333;stop-color:#000000"
       d="m 1487.6678,108.34769 -32.4614,-25.161226 29.1791,-15.997715 z"
       id="path2846" />
    <path
       style="fill:#fffdfd;fill-opacity:1;stroke:#736339;stroke-linejoin:round;stroke-dashoffset:1.35;stroke-opacity:0.333333;stop-color:#000000"
       d="m 1591.0898,39.225727 -36.7762,-18.285085 25.4627,-21.42431294 z"
       id="path2919" />
    <path
       style="fill:#fffdfd;fill-opacity:1;stroke:#736339;stroke-linejoin:round;stroke-dashoffset:1.35;stroke-opacity:0.333333;stop-color:#000000"
       d="m 1665.6279,-32.321746 -38.8273,-13.389481 22.4871,-24.529236 z"
       id="path2921" />
    <path
       style="display:inline;fill:#c53c2d;fill-opacity:1;stroke:#736339;stroke-linejoin:round;stroke-dashoffset:1.35;stroke-opacity:0.333333;stop-color:#000000"
       d="m 1633.9962,1.3660938 -38.627,-15.6650318 23.9121,-23.011084 z"
       id="path2936" />
  </g>
</svg>
